<?xml version="1.0" standalone="no"?>
<!DOCTYPE svg PUBLIC "-//W3C//DTD SVG 20010904//EN"
 "http://www.w3.org/TR/2001/REC-SVG-20010904/DTD/svg10.dtd">
<svg version="1.0" xmlns="http://www.w3.org/2000/svg"
 width="500.000000pt" height="500.000000pt" viewBox="0 0 500.000000 500.000000"
 preserveAspectRatio="xMidYMid meet">

<g transform="translate(0.000000,500.000000) scale(0.100000,-0.100000)"
fill="#000000" stroke="none">
<path d="M2330 3480 c-122 -16 -216 -55 -305 -124 l-60 -47 -3 70 -3 71 -264
0 -265 0 0 -950 0 -950 265 0 265 0 0 750 0 751 63 29 c111 53 194 35 217 -48
6 -24 10 -295 10 -759 l0 -723 260 0 260 0 2 752 3 752 49 25 c32 16 71 27
111 29 59 4 63 3 88 -28 l27 -32 0 -749 0 -749 265 0 265 0 0 783 c0 861 0
852 -62 969 -37 70 -114 143 -166 158 -200 58 -410 2 -569 -152 l-51 -51 -25
49 c-30 58 -86 114 -143 143 -36 19 -141 43 -169 40 -5 -1 -35 -5 -65 -9z"/>
</g>
</svg>
